<?xml version="1.0" encoding="UTF-8"?>
<svg version="1.1" xmlns="http://www.w3.org/2000/svg" width="263" height="174">
<path d="M0 0 C86.79 0 173.58 0 263 0 C263 57.42 263 114.84 263 174 C176.21 174 89.42 174 0 174 C0 116.58 0 59.16 0 0 Z " fill="#FEFEFE" transform="translate(0,0)"/>
<path d="M0 0 C17.82 0 35.64 0 54 0 C54 3.63 54 7.26 54 11 C41.13 11 28.26 11 15 11 C15 11.99 15 12.98 15 14 C27.54 14 40.08 14 53 14 C53 17.63 53 21.26 53 25 C40.46 25 27.92 25 15 25 C15 26.32 15 27.64 15 29 C27.87 29 40.74 29 54 29 C54 32.63 54 36.26 54 40 C36.18 40 18.36 40 0 40 C0 26.8 0 13.6 0 0 Z " fill="#000000" transform="translate(165,56)"/>
<path d="M0 0 C11.88 0 23.76 0 36 0 C36 3.96 36 7.92 36 12 C32.37 12 28.74 12 25 12 C25.39790493 15.52387013 25.81756563 19.04284091 26.25 22.5625 C26.35957031 23.55314453 26.46914062 24.54378906 26.58203125 25.56445312 C27.35653521 31.69933977 28.63484374 35.82016238 32 41 C32 41.66 32 42.32 32 43 C33.65 43.66 35.3 44.32 37 45 C36.85831863 46.43791516 36.71148957 47.8753237 36.5625 49.3125 C36.48128906 50.11300781 36.40007812 50.91351563 36.31640625 51.73828125 C36 54 36 54 35 57 C27.0470318 56.51308358 22.33781412 52.76483925 17 47 C16.79375 47.556875 16.5875 48.11375 16.375 48.6875 C14.49052538 51.85684369 12.13892744 54.11522642 9 56 C5.125 56.8125 5.125 56.8125 2 57 C0.57499941 53.00999834 -0.40075776 49.19469571 -1 45 C-0.0925 44.71125 0.815 44.4225 1.75 44.125 C6.92563457 40.74093124 8.14385428 35.50081504 9.5703125 29.66796875 C10.13093994 26.18698201 10.35727375 22.70326111 10.5625 19.1875 C10.60568359 18.49462891 10.64886719 17.80175781 10.69335938 17.08789062 C10.79861453 15.39211314 10.89972863 13.69607948 11 12 C7.37 12 3.74 12 0 12 C0 8.04 0 4.08 0 0 Z " fill="#040404" transform="translate(101,56)"/>
<path d="M0 0 C11.22 0 22.44 0 34 0 C34 3.96 34 7.92 34 12 C27.4 12 20.8 12 14 12 C14 23.22 14 34.44 14 46 C20.93 46 27.86 46 35 46 C35 49.96 35 53.92 35 58 C23.45 58 11.9 58 0 58 C0 38.86 0 19.72 0 0 Z " fill="#000000" transform="translate(40,56)"/>
<path d="M0 0 C4.95 0 9.9 0 15 0 C15 20.13 15 40.26 15 61 C10.05 61 5.1 61 0 61 C0 52.75 0 44.5 0 36 C-2.97 36 -5.94 36 -9 36 C-9 32.04 -9 28.08 -9 24 C-6.03 24 -3.06 24 0 24 C0 16.08 0 8.16 0 0 Z " fill="#030303" transform="translate(142,55)"/>
<path d="M0 0 C4.95 0 9.9 0 15 0 C15 20.13 15 40.26 15 61 C10.05 61 5.1 61 0 61 C0 40.87 0 20.74 0 0 Z " fill="#060606" transform="translate(81,55)"/>
<path d="M0 0 C19.14 0 38.28 0 58 0 C58 3.63 58 7.26 58 11 C38.86 11 19.72 11 0 11 C0 7.37 0 3.74 0 0 Z " fill="#020202" transform="translate(163,102)"/>
</svg>
