<?xml version="1.0" encoding="UTF-8"?>
<svg version="1.1" xmlns="http://www.w3.org/2000/svg" width="255" height="149">
<path d="M0 0 C84.15 0 168.3 0 255 0 C255 49.17 255 98.34 255 149 C170.85 149 86.7 149 0 149 C0 99.83 0 50.66 0 0 Z " fill="#FEFEFE" transform="translate(0,0)"/>
<path d="M0 0 C18.15 0 36.3 0 55 0 C55 3.63 55 7.26 55 11 C42.13 11 29.26 11 16 11 C16 11.99 16 12.98 16 14 C28.87 14 41.74 14 55 14 C55 17.63 55 21.26 55 25 C42.13 25 29.26 25 16 25 C16 26.32 16 27.64 16 29 C28.87 29 41.74 29 55 29 C55 32.63 55 36.26 55 40 C36.85 40 18.7 40 0 40 C0 26.8 0 13.6 0 0 Z " fill="#D9D9D9" transform="translate(158,42)"/>
<path d="M0 0 C11.88 0 23.76 0 36 0 C36 3.96 36 7.92 36 12 C32.7 12 29.4 12 26 12 C25.95076673 28.6017593 25.95076673 28.6017593 33.625 42.625 C35.06105288 43.45639903 36.51582421 44.2579121 38 45 C37.68991116 46.60463449 37.37683713 48.20869231 37.0625 49.8125 C36.88847656 50.70582031 36.71445313 51.59914062 36.53515625 52.51953125 C36 55 36 55 35 58 C27.76137919 57.63806896 22.83975516 53.00457655 18 48 C17.59910156 48.47050781 17.19820312 48.94101563 16.78515625 49.42578125 C12.3274083 54.30807662 8.41250631 56.47321278 2 58 C-1.87096774 48.48387097 -1.87096774 48.48387097 -1 45 C0.95890881 43.60699818 2.9639118 42.27754554 5 41 C11.25624504 32.95625637 10.55270627 21.69921144 11 12 C7.37 12 3.74 12 0 12 C0 8.04 0 4.08 0 0 Z " fill="#D9D9D9" transform="translate(95,42)"/>
<path d="M0 0 C11.55 0 23.1 0 35 0 C35 3.96 35 7.92 35 12 C28.73 12 22.46 12 16 12 C16 23.22 16 34.44 16 46 C22.6 46 29.2 46 36 46 C36 49.96 36 53.92 36 58 C24.12 58 12.24 58 0 58 C0 38.86 0 19.72 0 0 Z " fill="#DADADA" transform="translate(33,42)"/>
<path d="M0 0 C5.28 0 10.56 0 16 0 C16 20.13 16 40.26 16 61 C10.72 61 5.44 61 0 61 C0 52.75 0 44.5 0 36 C-2.97 36 -5.94 36 -9 36 C-9 32.04 -9 28.08 -9 24 C-6.03 24 -3.06 24 0 24 C0 16.08 0 8.16 0 0 Z " fill="#DADADA" transform="translate(136,41)"/>
<path d="M0 0 C5.28 0 10.56 0 16 0 C16 20.13 16 40.26 16 61 C10.72 61 5.44 61 0 61 C0 40.87 0 20.74 0 0 Z " fill="#DADADA" transform="translate(74,41)"/>
<path d="M0 0 C19.14 0 38.28 0 58 0 C58 3.63 58 7.26 58 11 C38.86 11 19.72 11 0 11 C0 7.37 0 3.74 0 0 Z " fill="#D9D9D9" transform="translate(157,88)"/>
</svg>
