<?xml version="1.0" encoding="UTF-8"?>
<svg version="1.1" xmlns="http://www.w3.org/2000/svg" width="241" height="177">
<path d="M0 0 C79.53 0 159.06 0 241 0 C241 58.41 241 116.82 241 177 C161.47 177 81.94 177 0 177 C0 118.59 0 60.18 0 0 Z " fill="#FEFEFE" transform="translate(0,0)"/>
<path d="M0 0 C18.15 0 36.3 0 55 0 C55 7.92 55 15.84 55 24 C42.13 24 29.26 24 16 24 C16 24.99 16 25.98 16 27 C28.87 27 41.74 27 55 27 C55 30.63 55 34.26 55 38 C36.85 38 18.7 38 0 38 C0 29.75 0 21.5 0 13 C13.2 13 26.4 13 40 13 C40 12.34 40 11.68 40 11 C26.8 11 13.6 11 0 11 C0 7.37 0 3.74 0 0 Z " fill="#D9D9D9" transform="translate(122,52)"/>
<path d="M0 0 C18.15 0 36.3 0 55 0 C55 7.26 55 14.52 55 22 C36.85 22 18.7 22 0 22 C0 14.74 0 7.48 0 0 Z " fill="#DADADA" transform="translate(59,90)"/>
<path d="M0 0 C0.84575592 -0.0066568 1.69151184 -0.0133136 2.56289673 -0.02017212 C4.34985178 -0.03028373 6.13684449 -0.0349896 7.92382812 -0.03466797 C10.64777353 -0.03903638 13.37009163 -0.07535689 16.09375 -0.11328125 C17.83332782 -0.11915083 19.5729133 -0.12311928 21.3125 -0.125 C22.52684219 -0.14655655 22.52684219 -0.14655655 23.76571655 -0.16854858 C29.06711093 -0.12604282 32.09513124 0.80492053 36.2890625 4.3359375 C38.97374288 8.36295807 38.97093987 11.6043738 38.2890625 16.3359375 C36.15157196 19.92386805 34.17680111 21.89313871 30.2890625 23.3359375 C27.35325891 23.5524744 24.51471794 23.66384189 21.578125 23.671875 C20.73236908 23.6785318 19.88661316 23.6851886 19.01522827 23.69204712 C17.22827322 23.70215873 15.44128051 23.7068646 13.65429688 23.70654297 C10.93035147 23.71091138 8.20803337 23.74723189 5.484375 23.78515625 C3.74479718 23.79102583 2.0052117 23.79499428 0.265625 23.796875 C-0.94871719 23.81843155 -0.94871719 23.81843155 -2.18759155 23.84042358 C-7.49768786 23.79784805 -10.47745836 22.8244029 -14.7109375 19.3359375 C-17.07215413 16.3307527 -17.12954387 13.07105312 -17.03125 9.30078125 C-16.51481333 6.13288317 -14.99847348 4.49638815 -12.7109375 2.3359375 C-8.84757068 -0.35506472 -4.52471085 0.01237744 0 0 Z " fill="#D9D9D9" transform="translate(75.7109375,51.6640625)"/>
<path d="M0 0 C5.28 0 10.56 0 16 0 C16 1.98 16 3.96 16 6 C19.3 6 22.6 6 26 6 C26 4.02 26 2.04 26 0 C31.28 0 36.56 0 42 0 C42 1.98 42 3.96 42 6 C44.64 6 47.28 6 50 6 C50 9.63 50 13.26 50 17 C30.86 17 11.72 17 -8 17 C-8 13.37 -8 9.74 -8 6 C-5.36 6 -2.72 6 0 6 C0 4.02 0 2.04 0 0 Z " fill="#D9D9D9" transform="translate(129,92)"/>
<path d="M0 0 C19.14 0 38.28 0 58 0 C58 3.3 58 6.6 58 10 C38.86 10 19.72 10 0 10 C0 6.7 0 3.4 0 0 Z " fill="#D9D9D9" transform="translate(57,77)"/>
<path d="M0 0 C7.59 0 15.18 0 23 0 C23 0.99 23 1.98 23 3 C15.41 3 7.82 3 0 3 C0 2.01 0 1.02 0 0 Z " fill="#FEFEFE" transform="translate(75,62)"/>
</svg>
