<?xml version="1.0" encoding="UTF-8"?>
<svg version="1.1" xmlns="http://www.w3.org/2000/svg" width="320" height="185">
<path d="M0 0 C105.6 0 211.2 0 320 0 C320 61.05 320 122.1 320 185 C214.4 185 108.8 185 0 185 C0 123.95 0 62.9 0 0 Z " fill="#FEFEFE" transform="translate(0,0)"/>
<path d="M0 0 C18.15 0 36.3 0 55 0 C55 7.92 55 15.84 55 24 C41.8 24 28.6 24 15 24 C15 24.99 15 25.98 15 27 C28.2 27 41.4 27 55 27 C55 30.63 55 34.26 55 38 C36.85 38 18.7 38 0 38 C0 29.75 0 21.5 0 13 C13.2 13 26.4 13 40 13 C40 12.34 40 11.68 40 11 C26.8 11 13.6 11 0 11 C0 7.37 0 3.74 0 0 Z " fill="#020202" transform="translate(161,50)"/>
<path d="M0 0 C18.15 0 36.3 0 55 0 C55 7.26 55 14.52 55 22 C36.85 22 18.7 22 0 22 C0 14.74 0 7.48 0 0 Z " fill="#0D0D0D" transform="translate(98,88)"/>
<path d="M0 0 C1.2367749 -0.00430527 1.2367749 -0.00430527 2.49853516 -0.00869751 C4.23666066 -0.01073322 5.97480933 -0.0052379 7.71289062 0.00732422 C10.36640879 0.0233855 13.01840395 0.00745941 15.671875 -0.01171875 C17.36458668 -0.00973623 19.05729742 -0.00589237 20.75 0 C21.93456787 -0.00910904 21.93456787 -0.00910904 23.14306641 -0.0184021 C29.26356894 0.059363 32.42036367 1.44380117 36.6875 5.7109375 C38.76324731 9.01675729 39.00220783 10.55678957 38.375 14.3984375 C36.03630574 18.81597111 33.89299615 21.29263059 29.375 23.3984375 C26.42579233 23.6863329 23.69559714 23.81952593 20.75 23.796875 C19.5132251 23.80118027 19.5132251 23.80118027 18.25146484 23.80557251 C16.51333934 23.80760822 14.77519067 23.8021129 13.03710938 23.78955078 C10.38359121 23.7734895 7.73159605 23.78941559 5.078125 23.80859375 C3.38541332 23.80661123 1.69270258 23.80276737 0 23.796875 C-1.18456787 23.80598404 -1.18456787 23.80598404 -2.39306641 23.8152771 C-6.97633889 23.75704354 -10.00354661 23.28076658 -13.625 20.3984375 C-16.2477571 16.32864199 -17.24069457 13.22137829 -16.625 8.3984375 C-13.26510405 0.79446245 -7.70859221 -0.0592772 0 0 Z " fill="#030303" transform="translate(114.625,49.6015625)"/>
<path d="M0 0 C5.28 0 10.56 0 16 0 C16 1.98 16 3.96 16 6 C19.3 6 22.6 6 26 6 C26 4.02 26 2.04 26 0 C30.95 0 35.9 0 41 0 C41 1.98 41 3.96 41 6 C43.97 6 46.94 6 50 6 C50 9.63 50 13.26 50 17 C30.86 17 11.72 17 -8 17 C-8 13.37 -8 9.74 -8 6 C-5.36 6 -2.72 6 0 6 C0 4.02 0 2.04 0 0 Z " fill="#060606" transform="translate(168,90)"/>
<path d="M0 0 C18.81 0 37.62 0 57 0 C57 3.3 57 6.6 57 10 C38.19 10 19.38 10 0 10 C0 6.7 0 3.4 0 0 Z " fill="#000000" transform="translate(97,75)"/>
<path d="M0 0 C7.59 0 15.18 0 23 0 C23 0.99 23 1.98 23 3 C15.41 3 7.82 3 0 3 C0 2.01 0 1.02 0 0 Z " fill="#FDFDFD" transform="translate(114,60)"/>
</svg>
