<?xml version="1.0" encoding="UTF-8"?>
<svg version="1.1" xmlns="http://www.w3.org/2000/svg" width="242" height="172">
<path d="M0 0 C79.86 0 159.72 0 242 0 C242 56.76 242 113.52 242 172 C162.14 172 82.28 172 0 172 C0 115.24 0 58.48 0 0 Z " fill="#FEFEFE" transform="translate(0,0)"/>
<path d="M0 0 C11.22 0 22.44 0 34 0 C34 3.96 34 7.92 34 12 C27.73 12 21.46 12 15 12 C15 15.3 15 18.6 15 22 C21.27 22 27.54 22 34 22 C34 25.96 34 29.92 34 34 C27.73 34 21.46 34 15 34 C15 37.96 15 41.92 15 46 C21.93 46 28.86 46 36 46 C36 49.96 36 53.92 36 58 C24.12 58 12.24 58 0 58 C0 38.86 0 19.72 0 0 Z " fill="#030303" transform="translate(117,52)"/>
<path d="M0 0 C11.22 0 22.44 0 34 0 C34.49452243 34.61657018 34.49452243 34.61657018 22.6875 48.5 C15.68929421 55.69452509 9.90033253 57.44998153 0 58 C-0.33 54.04 -0.66 50.08 -1 46 C0.4025 45.4225 1.805 44.845 3.25 44.25 C9.48075497 41.43202162 12.38755606 38.24497708 15.05078125 31.9921875 C17.11194494 25.49485668 17.94194716 18.71863551 19 12 C12.73 12 6.46 12 0 12 C0 8.04 0 4.08 0 0 Z " fill="#040404" transform="translate(56,52)"/>
<path d="M0 0 C4.95 0 9.9 0 15 0 C15 7.59 15 15.18 15 23 C16.98 23 18.96 23 21 23 C21 26.96 21 30.92 21 35 C19.02 35 17.04 35 15 35 C15 43.58 15 52.16 15 61 C10.05 61 5.1 61 0 61 C0 40.87 0 20.74 0 0 Z " fill="#050505" transform="translate(158,51)"/>
<path d="M0 0 C4.95 0 9.9 0 15 0 C15 20.13 15 40.26 15 61 C10.05 61 5.1 61 0 61 C0 40.87 0 20.74 0 0 Z " fill="#060606" transform="translate(97,51)"/>
</svg>
