<?xml version="1.0" encoding="UTF-8"?>
<svg version="1.1" xmlns="http://www.w3.org/2000/svg" width="267" height="201">
<path d="M0 0 C88.11 0 176.22 0 267 0 C267 66.33 267 132.66 267 201 C178.89 201 90.78 201 0 201 C0 134.67 0 68.34 0 0 Z " fill="#FEFEFE" transform="translate(0,0)"/>
<path d="M0 0 C11.55 0 23.1 0 35 0 C35 3.96 35 7.92 35 12 C28.73 12 22.46 12 16 12 C16 15.3 16 18.6 16 22 C22.27 22 28.54 22 35 22 C35 25.96 35 29.92 35 34 C28.73 34 22.46 34 16 34 C16 37.96 16 41.92 16 46 C22.6 46 29.2 46 36 46 C36 49.96 36 53.92 36 58 C24.12 58 12.24 58 0 58 C0 38.86 0 19.72 0 0 Z " fill="#D9D9D9" transform="translate(134,68)"/>
<path d="M0 0 C11.55 0 23.1 0 35 0 C35.55014623 19.47517646 35.42078949 35.58010352 21.8125 50.75 C16.91704918 55.41081048 10.68177974 58.20866328 3.875 58.25 C2.92625 58.1675 1.9775 58.085 1 58 C-0.3271261 54.0186217 -0.06915913 50.14954773 0 46 C0.59167969 45.78085938 1.18335937 45.56171875 1.79296875 45.3359375 C8.26624606 42.73817858 12.08883103 39.93895164 15.15234375 33.625 C18.08417727 26.44670297 18.66818485 19.71470231 19 12 C12.73 12 6.46 12 0 12 C0 8.04 0 4.08 0 0 Z " fill="#D9D9D9" transform="translate(72,68)"/>
<path d="M0 0 C5.28 0 10.56 0 16 0 C16 7.59 16 15.18 16 23 C17.98 23 19.96 23 22 23 C22 26.96 22 30.92 22 35 C20.02 35 18.04 35 16 35 C16 43.58 16 52.16 16 61 C10.72 61 5.44 61 0 61 C0 40.87 0 20.74 0 0 Z " fill="#DADADA" transform="translate(175,67)"/>
<path d="M0 0 C5.28 0 10.56 0 16 0 C16 20.13 16 40.26 16 61 C10.72 61 5.44 61 0 61 C0 40.87 0 20.74 0 0 Z " fill="#DADADA" transform="translate(113,67)"/>
</svg>
