<?xml version="1.0" standalone="no"?>
<!DOCTYPE svg PUBLIC "-//W3C//DTD SVG 20010904//EN"
 "http://www.w3.org/TR/2001/REC-SVG-20010904/DTD/svg10.dtd">
<svg version="1.0" xmlns="http://www.w3.org/2000/svg"
 width="501.000000pt" height="498.000000pt" viewBox="0 0 501.000000 498.000000"
 preserveAspectRatio="xMidYMid meet">

<g transform="translate(0.000000,498.000000) scale(0.100000,-0.100000)"
fill="#000000" stroke="none">
<path d="M4035 3698 c-3 -7 -6 -130 -7 -273 l-3 -260 -245 0 -245 0 -5 190 -5
190 -490 0 -490 0 -3 -407 -2 -408 95 0 95 0 2 328 3 327 300 0 300 0 3 -327
2 -328 95 0 94 0 3 133 3 132 247 3 247 2 3 -132 3 -133 95 0 95 0 0 485 0
485 -93 3 c-68 2 -94 -1 -97 -10z"/>
<path d="M1455 3613 c-353 -57 -568 -222 -622 -476 -22 -108 -6 -222 47 -328
41 -80 38 -79 183 -79 l130 0 -56 56 c-31 31 -69 82 -84 113 -24 48 -28 68
-28 141 0 76 4 93 33 152 56 113 171 193 344 240 117 31 336 31 453 -1 119
-32 201 -76 271 -145 82 -82 108 -148 102 -261 -6 -100 -33 -161 -105 -233
-29 -29 -53 -55 -53 -58 0 -2 56 -4 123 -4 141 0 137 -2 183 90 87 173 64 385
-58 537 -61 77 -184 161 -292 200 -124 44 -190 55 -366 58 -96 2 -188 1 -205
-2z"/>
<path d="M958 2595 c-3 -4 4 -35 15 -71 26 -78 50 -87 67 -23 12 45 19 44 36
-4 18 -53 43 -42 65 28 22 70 22 75 9 75 -6 0 -15 -12 -20 -27 -26 -70 -26
-71 -42 -23 -8 25 -21 45 -29 45 -7 0 -21 -20 -30 -45 -11 -28 -19 -39 -22
-30 -3 8 -9 28 -14 44 -9 29 -24 42 -35 31z"/>
<path d="M1257 2593 c-4 -3 -7 -35 -7 -70 0 -49 3 -63 15 -63 10 0 15 10 15
30 0 27 3 30 30 30 27 0 30 -3 30 -30 0 -20 5 -30 15 -30 12 0 15 14 15 70 0
54 -3 70 -14 70 -9 0 -16 -12 -18 -27 -2 -22 -8 -28 -28 -28 -20 0 -26 6 -28
28 -3 26 -12 34 -25 20z"/>
<path d="M1482 2530 c-24 -54 -28 -70 -16 -70 8 0 17 7 20 15 8 20 64 19 79
-1 6 -9 17 -15 23 -13 15 5 -42 133 -61 137 -9 2 -25 -23 -45 -68z m58 -1 c0
-10 -7 -19 -15 -19 -16 0 -19 9 -9 34 8 20 24 11 24 -15z"/>
<path d="M1667 2594 c-10 -11 3 -24 24 -24 16 0 19 -7 19 -55 0 -42 3 -55 15
-55 12 0 15 13 15 55 0 48 2 55 20 55 11 0 20 7 20 15 0 11 -13 15 -53 15 -30
0 -57 -3 -60 -6z"/>
<path d="M1970 2585 c0 -8 9 -15 20 -15 18 0 20 -7 20 -55 0 -42 3 -55 15 -55
12 0 15 13 15 55 0 48 2 55 20 55 11 0 20 7 20 15 0 12 -13 15 -55 15 -42 0
-55 -3 -55 -15z"/>
<path d="M2185 2575 c-14 -13 -25 -33 -25 -45 0 -27 43 -70 70 -70 55 0 89 45
69 92 -21 51 -76 62 -114 23z m85 -25 c8 -14 8 -26 0 -40 -19 -35 -80 -20 -80
20 0 40 61 55 80 20z"/>
<path d="M2395 2588 c-4 -9 -5 -40 -3 -69 l3 -54 42 -3 c35 -3 48 2 68 22 30
30 32 56 7 86 -23 28 -108 41 -117 18z m99 -40 c16 -26 -4 -52 -43 -56 -29 -3
-31 -1 -31 31 0 18 3 37 7 41 13 12 56 2 67 -16z"/>
<path d="M2633 2533 c-19 -41 -27 -70 -20 -72 5 -2 16 4 22 13 15 20 71 21 79
1 3 -8 12 -15 20 -15 12 0 9 14 -14 68 -15 37 -35 68 -43 70 -9 2 -25 -21 -44
-65z m57 -9 c0 -8 -7 -14 -15 -14 -15 0 -21 21 -9 33 10 9 24 -2 24 -19z"/>
<path d="M2820 2595 c0 -3 9 -23 20 -45 11 -22 20 -51 20 -65 0 -16 6 -25 15
-25 9 0 15 9 15 21 0 11 12 41 26 65 15 25 24 48 20 51 -8 8 -34 -15 -41 -38
-9 -26 -17 -24 -37 11 -15 26 -38 41 -38 25z"/>
<path d="M3147 2593 c-4 -3 -7 -35 -7 -70 l0 -64 53 3 c60 3 70 21 15 26 -51
4 -53 32 -3 32 19 0 35 4 35 10 0 5 -16 12 -35 16 -19 3 -35 10 -35 15 0 5 16
9 35 9 24 0 35 5 35 15 0 11 -11 15 -43 15 -24 0 -47 -3 -50 -7z"/>
<path d="M3352 2530 c-24 -54 -28 -70 -16 -70 8 0 17 7 20 15 4 9 19 15 39 15
20 0 35 -6 39 -15 3 -8 12 -15 20 -15 12 0 9 14 -14 68 -15 37 -35 68 -43 70
-9 2 -25 -22 -45 -68z m58 -6 c0 -8 -7 -14 -15 -14 -15 0 -21 21 -9 33 10 9
24 -2 24 -19z"/>
<path d="M3540 2585 c0 -8 9 -15 20 -15 18 0 20 -7 20 -55 0 -42 3 -55 15 -55
12 0 15 13 15 55 0 48 2 55 20 55 11 0 20 7 20 15 0 12 -13 15 -55 15 -42 0
-55 -3 -55 -15z"/>
<path d="M3737 2589 c-20 -12 -13 -31 8 -22 8 3 22 2 31 -1 15 -6 15 -8 -1
-26 -27 -29 -9 -38 20 -10 29 28 30 33 9 54 -18 18 -41 20 -67 5z"/>
<path d="M3754 2489 c-10 -17 13 -36 27 -22 12 12 4 33 -11 33 -5 0 -12 -5
-16 -11z"/>
<path d="M1527 2303 c-4 -3 -7 -71 -7 -150 l0 -143 -445 0 -446 0 3 -82 3 -83
995 0 995 0 3 83 3 82 -451 0 -450 0 0 150 0 150 -98 0 c-54 0 -102 -3 -105
-7z"/>
<path d="M2782 2298 c-7 -7 -12 -40 -12 -80 l0 -68 628 -2 627 -3 3 -302 2
-303 100 0 100 0 -2 383 -3 382 -715 3 c-549 2 -719 -1 -728 -10z"/>
<path d="M1823 1513 c-18 -7 -16 -42 2 -49 23 -9 18 -32 -7 -37 -13 -2 0 -4
27 -4 28 0 40 2 28 4 -29 5 -29 20 -2 42 20 16 20 18 4 34 -17 17 -30 20 -52
10z m45 -26 c3 -12 -3 -17 -22 -17 -25 0 -35 18 -19 34 12 12 38 2 41 -17z"/>
<path d="M2310 1495 c0 -20 5 -25 25 -25 20 0 25 5 25 25 0 20 -5 25 -25 25
-20 0 -25 -5 -25 -25z m40 0 c0 -8 -7 -15 -15 -15 -8 0 -15 7 -15 15 0 8 7 15
15 15 8 0 15 -7 15 -15z"/>
<path d="M2883 1465 c0 -33 2 -45 4 -27 2 18 2 45 0 60 -2 15 -4 0 -4 -33z"/>
<path d="M2000 1498 c0 -4 16 -8 35 -8 19 0 35 2 35 4 0 2 -16 6 -35 8 -19 2
-35 0 -35 -4z"/>
<path d="M2370 1482 c0 -26 -2 -28 -37 -25 -21 1 -30 0 -21 -3 9 -3 19 -13 21
-22 4 -15 5 -14 6 2 1 17 2 17 26 2 l25 -16 0 45 c0 25 -4 45 -10 45 -5 0 -10
-13 -10 -28z"/>
<path d="M2617 1503 c-4 -3 -7 -15 -7 -25 0 -21 39 -25 58 -6 10 10 15 10 22
-2 7 -11 10 -8 9 15 0 17 -3 24 -6 18 -6 -15 -33 -17 -33 -3 0 11 -33 14 -43
3z m33 -18 c0 -8 -4 -15 -10 -15 -5 0 -10 7 -10 15 0 8 5 15 10 15 6 0 10 -7
10 -15z"/>
<path d="M2818 1503 c15 -6 16 -35 0 -51 -9 -9 -9 -12 0 -12 7 0 12 5 12 12 0
9 3 9 12 0 20 -20 30 -13 14 10 -20 29 -20 35 2 41 9 3 1 5 -18 5 -19 0 -29
-2 -22 -5z"/>
<path d="M3018 1503 c7 -3 16 -2 19 1 4 3 -2 6 -13 5 -11 0 -14 -3 -6 -6z"/>
<path d="M2013 1473 c15 -2 39 -2 55 0 15 2 2 4 -28 4 -30 0 -43 -2 -27 -4z"/>
<path d="M2030 1450 l35 -7 -32 -2 c-22 -1 -33 -6 -33 -16 0 -11 11 -15 43
-14 l42 2 -40 7 -40 7 38 2 c52 1 44 25 -9 28 l-39 1 35 -8z"/>
<path d="M2657 1443 c19 -3 34 -11 36 -21 3 -12 5 -10 6 6 1 19 -3 22 -36 20
-37 -1 -37 -1 -6 -5z"/>
</g>
</svg>
