<?xml version="1.0" standalone="no"?>
<!DOCTYPE svg PUBLIC "-//W3C//DTD SVG 20010904//EN"
 "http://www.w3.org/TR/2001/REC-SVG-20010904/DTD/svg10.dtd">
<svg version="1.0" xmlns="http://www.w3.org/2000/svg"
 width="504.000000pt" height="125.000000pt" viewBox="0 0 504.000000 125.000000"
 preserveAspectRatio="xMidYMid meet">

<g transform="translate(0.000000,125.000000) scale(0.100000,-0.100000)"
fill="#000000" stroke="none">
<path d="M2510 730 l0 -290 -70 0 -70 0 0 -70 0 -70 70 0 c68 0 70 -1 70 -25
0 -25 0 -25 95 -25 l95 0 0 385 0 385 -95 0 -95 0 0 -290z"/>
<path d="M3540 940 l0 -80 -30 0 -30 0 0 -75 0 -75 30 0 30 0 0 -80 0 -80 95
0 95 0 0 235 0 235 -95 0 -95 0 0 -80z"/>
<path d="M4310 635 l0 -385 95 0 95 0 0 385 0 385 -95 0 -95 0 0 -385z"/>
<path d="M296 995 c-45 -16 -99 -65 -121 -111 -20 -43 -20 -156 1 -200 22 -46
85 -100 131 -113 61 -17 362 -14 414 4 88 32 139 108 139 210 0 102 -51 178
-139 210 -59 20 -367 21 -425 0z m354 -155 c12 -12 20 -33 20 -55 0 -64 -22
-75 -159 -75 -141 0 -163 10 -163 75 0 65 22 75 163 75 106 0 121 -2 139 -20z"/>
<path d="M960 915 l0 -95 345 0 345 0 0 60 0 60 -245 0 -245 0 0 35 0 35 -100
0 -100 0 0 -95z"/>
<path d="M2010 840 l0 -170 220 0 220 0 0 170 0 170 -220 0 -220 0 0 -170z
m270 0 c0 -29 -1 -30 -50 -30 -49 0 -50 1 -50 30 0 29 1 30 50 30 49 0 50 -1
50 -30z"/>
<path d="M3020 785 l0 -225 220 0 220 0 0 225 0 225 -220 0 -220 0 0 -225z
m260 0 l0 -75 -40 0 -40 0 0 75 0 75 40 0 40 0 0 -75z"/>
<path d="M3800 935 l0 -75 65 0 65 0 0 -79 c0 -90 -21 -215 -44 -259 -18 -34
-71 -82 -92 -82 -18 0 -18 0 3 -88 12 -53 21 -72 33 -72 34 0 122 54 156 96
l36 43 26 -32 c47 -57 93 -87 153 -102 25 -6 27 -4 46 74 17 65 18 81 7 81
-27 0 -83 62 -102 113 -23 62 -42 174 -42 251 l0 56 70 0 70 0 0 75 0 75 -225
0 -225 0 0 -75z"/>
<path d="M4648 1000 c-86 -26 -136 -118 -112 -207 6 -21 12 -23 85 -23 l78 0
3 37 c2 28 8 39 22 41 17 4 18 -1 14 -46 -4 -38 -16 -68 -48 -116 -48 -75 -69
-126 -70 -173 l0 -33 79 0 79 0 6 30 c3 17 24 58 47 91 65 96 79 134 79 220 0
62 -4 82 -23 110 -43 65 -150 96 -239 69z"/>
<path d="M940 735 l0 -55 365 0 365 0 0 55 0 55 -365 0 -365 0 0 -55z"/>
<path d="M960 585 l0 -55 250 0 c216 0 250 -2 250 -15 0 -13 -34 -15 -250 -15
l-250 0 0 -125 0 -125 350 0 350 0 0 55 0 55 -260 0 c-224 0 -260 2 -260 15 0
13 35 15 255 15 l255 0 0 125 0 125 -345 0 -345 0 0 -55z"/>
<path d="M1990 550 l0 -70 70 0 70 0 0 -115 0 -115 90 0 90 0 0 38 c0 22 3 73
6 115 l7 76 76 3 76 3 3 68 3 67 -246 0 -245 0 0 -70z"/>
<path d="M410 480 l0 -50 -130 0 -130 0 0 -75 0 -75 360 0 360 0 0 75 0 75
-135 0 -135 0 0 50 0 50 -95 0 -95 0 0 -50z"/>
<path d="M3040 435 l0 -75 250 0 250 0 0 -55 0 -55 95 0 95 0 0 130 0 130
-345 0 -345 0 0 -75z"/>
<path d="M4641 404 c-26 -21 -31 -33 -31 -69 0 -36 5 -48 31 -69 35 -29 67
-33 108 -11 33 16 41 33 41 80 0 47 -8 64 -41 80 -41 22 -73 18 -108 -11z"/>
</g>
</svg>
