<?xml version="1.0" encoding="UTF-8"?>
<svg version="1.1" xmlns="http://www.w3.org/2000/svg" width="221" height="136">
<path d="M0 0 C72.93 0 145.86 0 221 0 C221 44.88 221 89.76 221 136 C148.07 136 75.14 136 0 136 C0 91.12 0 46.24 0 0 Z " fill="#FEFEFE" transform="translate(0,0)"/>
<path d="M0 0 C11.22 0 22.44 0 34 0 C34 11.55 34 23.1 34 35 C22.78 35 11.56 35 0 35 C0 23.45 0 11.9 0 0 Z " fill="#D9D9D9" transform="translate(82,33)"/>
<path d="M0 0 C4.95 0 9.9 0 15 0 C15 2.97 15 5.94 15 9 C28.2 9 41.4 9 55 9 C55 12.96 55 16.92 55 21 C36.85 21 18.7 21 0 21 C0 14.07 0 7.14 0 0 Z " fill="#DADADA" transform="translate(83,73)"/>
<path d="M0 0 C4.95 0 9.9 0 15 0 C15 13.2 15 26.4 15 40 C10.05 40 5.1 40 0 40 C0 37.69 0 35.38 0 33 C-1.65 33 -3.3 33 -5 33 C-5 29.37 -5 25.74 -5 22 C-3.35 22 -1.7 22 0 22 C0 20.35 0 18.7 0 17 C-1.65 17 -3.3 17 -5 17 C-5 13.37 -5 9.74 -5 6 C-3.35 6 -1.7 6 0 6 C0 4.02 0 2.04 0 0 Z " fill="#D9D9D9" transform="translate(123,33)"/>
<path d="M0 0 C1.98 0 3.96 0 6 0 C6 3.96 6 7.92 6 12 C4.02 12 2.04 12 0 12 C0 8.04 0 4.08 0 0 Z " fill="#FDFDFD" transform="translate(96,45)"/>
</svg>
