<?xml version="1.0" encoding="UTF-8"?>
<svg version="1.1" xmlns="http://www.w3.org/2000/svg" width="284" height="203">
<path d="M0 0 C93.72 0 187.44 0 284 0 C284 66.99 284 133.98 284 203 C190.28 203 96.56 203 0 203 C0 136.01 0 69.02 0 0 Z " fill="#FEFEFE" transform="translate(0,0)"/>
<path d="M0 0 C11.22 0 22.44 0 34 0 C34 11.55 34 23.1 34 35 C22.78 35 11.56 35 0 35 C0 23.45 0 11.9 0 0 Z " fill="#010101" transform="translate(108,68)"/>
<path d="M0 0 C4.62 0 9.24 0 14 0 C14 2.64 14 5.28 14 8 C27.2 8 40.4 8 54 8 C54 11.96 54 15.92 54 20 C36.18 20 18.36 20 0 20 C0 13.4 0 6.8 0 0 Z " fill="#000000" transform="translate(110,108)"/>
<path d="M0 0 C4.95 0 9.9 0 15 0 C15 13.53 15 27.06 15 41 C10.05 41 5.1 41 0 41 C0 38.69 0 36.38 0 34 C-1.65 34 -3.3 34 -5 34 C-5 30.37 -5 26.74 -5 23 C-3.35 23 -1.7 23 0 23 C0 21.02 0 19.04 0 17 C-1.65 17 -3.3 17 -5 17 C-5 13.37 -5 9.74 -5 6 C-3.35 6 -1.7 6 0 6 C0 4.02 0 2.04 0 0 Z " fill="#050505" transform="translate(149,67)"/>
<path d="M0 0 C0.33 0 0.66 0 1 0 C1.85298376 3.67387495 2.10789471 7.0447393 2.0625 10.8125 C2.05347656 11.78832031 2.04445312 12.76414062 2.03515625 13.76953125 C2.02355469 14.50558594 2.01195312 15.24164063 2 16 C3.65 16 5.3 16 7 16 C7 17.98 7 19.96 7 22 C5.35 22 3.7 22 2 22 C2.02320313 22.77085938 2.04640625 23.54171875 2.0703125 24.3359375 C2.08835938 25.33882812 2.10640625 26.34171875 2.125 27.375 C2.14820313 28.37273437 2.17140625 29.37046875 2.1953125 30.3984375 C2 33 2 33 0 35 C0 23.45 0 11.9 0 0 Z " fill="#D8D8D8" transform="translate(142,68)"/>
<path d="M0 0 C1.98 0 3.96 0 6 0 C6 3.63 6 7.26 6 11 C4.02 11 2.04 11 0 11 C0 7.37 0 3.74 0 0 Z " fill="#FBFBFB" transform="translate(122,80)"/>
</svg>
