<?xml version="1.0" standalone="no"?>
<!DOCTYPE svg PUBLIC "-//W3C//DTD SVG 20010904//EN"
 "http://www.w3.org/TR/2001/REC-SVG-20010904/DTD/svg10.dtd">
<svg version="1.0" xmlns="http://www.w3.org/2000/svg"
 width="308.000000pt" height="221.000000pt" viewBox="0 0 308.000000 221.000000"
 preserveAspectRatio="xMidYMid meet">

<g transform="translate(0.000000,221.000000) scale(0.100000,-0.100000)"
fill="#000000" stroke="none">
<path d="M1670 1425 l0 -165 75 0 75 0 0 55 c0 54 0 55 30 55 l30 0 0 60 0 60
-30 0 c-29 0 -30 1 -30 50 l0 50 -75 0 -75 0 0 -165z"/>
<path d="M1260 1420 l0 -160 175 0 175 0 0 160 0 160 -75 0 c-68 0 -75 -2 -75
-20 0 -15 -7 -20 -25 -20 -18 0 -25 5 -25 20 0 18 -7 20 -75 20 l-75 0 0 -160z
m200 -20 c0 -15 -7 -20 -25 -20 -18 0 -25 5 -25 20 0 15 7 20 25 20 18 0 25
-5 25 -20z"/>
<path d="M1270 1105 l0 -125 275 0 275 0 0 125 0 125 -75 0 c-60 0 -75 -3 -75
-15 0 -13 -21 -15 -125 -15 -104 0 -125 2 -125 15 0 12 -15 15 -75 15 l-75 0
0 -125z m400 -15 c0 -6 -48 -10 -125 -10 -77 0 -125 4 -125 10 0 6 48 10 125
10 77 0 125 -4 125 -10z"/>
</g>
</svg>
