<?xml version="1.0" encoding="UTF-8"?>
<svg version="1.1" xmlns="http://www.w3.org/2000/svg" width="224" height="175">
<path d="M0 0 C73.92 0 147.84 0 224 0 C224 57.75 224 115.5 224 175 C150.08 175 76.16 175 0 175 C0 117.25 0 59.5 0 0 Z " fill="#FEFEFE" transform="translate(0,0)"/>
<path d="M0 0 C5.28 0 10.56 0 16 0 C16 0.99 16 1.98 16 3 C23.92 3 31.84 3 40 3 C40 2.01 40 1.02 40 0 C44.95 0 49.9 0 55 0 C55 8.25 55 16.5 55 25 C36.85 25 18.7 25 0 25 C0 16.75 0 8.5 0 0 Z " fill="#DADADA" transform="translate(84,84)"/>
<path d="M0 0 C5.28 0 10.56 0 16 0 C16 1.32 16 2.64 16 4 C17.65 4 19.3 4 21 4 C21 2.68 21 1.36 21 0 C26.28 0 31.56 0 37 0 C37 10.56 37 21.12 37 32 C24.79 32 12.58 32 0 32 C0 21.44 0 10.88 0 0 Z " fill="#DADADA" transform="translate(82,49)"/>
<path d="M0 0 C4.95 0 9.9 0 15 0 C15 3.3 15 6.6 15 10 C16.98 10 18.96 10 21 10 C21 13.96 21 17.92 21 22 C19.02 22 17.04 22 15 22 C15 25.63 15 29.26 15 33 C10.05 33 5.1 33 0 33 C0 22.11 0 11.22 0 0 Z " fill="#D9D9D9" transform="translate(124,48)"/>
<path d="M0 0 C1.65 0 3.3 0 5 0 C5 1.32 5 2.64 5 4 C3.35 4 1.7 4 0 4 C0 2.68 0 1.36 0 0 Z " fill="#FFFFFF" transform="translate(98,65)"/>
</svg>
