<?xml version="1.0" standalone="no"?>
<!DOCTYPE svg PUBLIC "-//W3C//DTD SVG 20010904//EN"
 "http://www.w3.org/TR/2001/REC-SVG-20010904/DTD/svg10.dtd">
<svg version="1.0" xmlns="http://www.w3.org/2000/svg"
 width="515.000000pt" height="512.000000pt" viewBox="0 0 515.000000 512.000000"
 preserveAspectRatio="xMidYMid meet">

<g transform="translate(0.000000,512.000000) scale(0.100000,-0.100000)"
fill="#000000" stroke="none">
<path d="M4140 3530 l0 -280 -252 2 -253 3 -5 195 -5 195 -505 0 -505 0 -3
-417 -2 -418 100 0 100 0 0 335 0 335 23 5 c12 3 150 4 307 3 l285 -3 3 -337
2 -338 100 0 99 0 3 138 3 137 250 0 250 0 3 -137 3 -138 104 0 105 0 0 500 0
500 -105 0 -105 0 0 -280z"/>
<path d="M1495 3714 c-214 -32 -397 -115 -504 -229 -99 -107 -141 -213 -141
-360 0 -96 16 -161 61 -246 l34 -64 144 -3 144 -3 -29 23 c-52 41 -94 92 -122
148 -23 48 -27 67 -27 145 0 82 3 97 33 157 58 118 184 205 362 248 119 28
331 28 449 0 214 -52 364 -184 389 -342 19 -124 -16 -227 -109 -320 l-57 -58
132 0 c153 0 147 -3 195 100 42 93 58 197 42 291 -39 241 -216 409 -511 486
-81 22 -121 26 -275 28 -99 2 -193 1 -210 -1z"/>
<path d="M983 2656 c4 -9 14 -41 23 -71 20 -69 45 -75 63 -14 14 45 20 44 37
-4 17 -50 44 -42 65 18 21 61 23 85 6 85 -7 0 -19 -21 -26 -47 -14 -51 -15
-50 -41 20 -14 41 -36 33 -50 -19 -14 -49 -24 -48 -37 6 -6 21 -16 36 -28 38
-13 3 -16 0 -12 -12z"/>
<path d="M1290 2600 c0 -56 3 -70 15 -70 10 0 15 10 15 30 0 27 3 30 30 30 27
0 30 -3 30 -30 0 -20 5 -30 15 -30 12 0 15 14 15 70 0 56 -3 70 -15 70 -9 0
-15 -9 -15 -25 0 -21 -5 -25 -30 -25 -25 0 -30 4 -30 25 0 16 -6 25 -15 25
-12 0 -15 -14 -15 -70z"/>
<path d="M1522 2600 c-29 -65 -30 -70 -11 -70 10 0 19 7 19 15 0 11 11 15 35
15 22 0 38 -6 41 -15 9 -22 38 -19 30 3 -27 75 -53 122 -67 122 -10 0 -27 -25
-47 -70z m68 -12 c0 -4 -9 -8 -20 -8 -21 0 -24 8 -13 36 6 16 7 16 20 -2 7
-10 13 -21 13 -26z"/>
<path d="M1710 2655 c0 -9 9 -15 25 -15 24 0 25 -3 25 -55 0 -42 3 -55 15 -55
12 0 15 13 15 55 0 48 2 55 20 55 11 0 20 7 20 15 0 12 -13 15 -60 15 -47 0
-60 -3 -60 -15z"/>
<path d="M2022 2658 c3 -7 14 -14 26 -16 20 -3 22 -10 22 -58 0 -41 4 -54 15
-54 12 0 15 13 15 55 0 48 2 55 20 55 11 0 20 7 20 15 0 12 -13 15 -61 15 -44
0 -60 -3 -57 -12z"/>
<path d="M2245 2645 c-14 -13 -25 -33 -25 -45 0 -28 44 -70 73 -70 37 0 77 36
77 70 0 34 -40 70 -77 70 -13 0 -35 -11 -48 -25z m89 -27 c15 -24 -3 -52 -37
-56 -33 -4 -53 28 -37 59 14 25 58 23 74 -3z"/>
<path d="M2460 2600 l0 -70 45 0 c51 0 95 32 95 70 0 38 -44 70 -95 70 l-45 0
0 -70z m104 18 c16 -26 -4 -52 -43 -56 -30 -3 -31 -2 -31 38 0 40 1 41 31 38
18 -2 37 -11 43 -20z"/>
<path d="M2706 2608 c-14 -35 -26 -66 -26 -70 0 -14 28 -8 34 7 3 9 18 15 36
15 18 0 33 -6 36 -15 6 -15 34 -21 34 -7 0 4 -12 35 -26 70 -18 41 -33 62 -44
62 -11 0 -26 -21 -44 -62z m54 13 c0 -5 3 -16 6 -25 4 -12 0 -16 -16 -16 -16
0 -20 4 -16 16 3 9 6 20 6 25 0 5 5 9 10 9 6 0 10 -4 10 -9z"/>
<path d="M2915 2628 c14 -24 25 -55 25 -70 0 -18 5 -28 15 -28 9 0 15 9 15 21
0 12 13 44 30 70 26 43 28 49 12 49 -11 0 -25 -14 -34 -32 l-16 -33 -18 32
c-11 18 -27 33 -36 33 -15 0 -14 -6 7 -42z"/>
<path d="M3230 2600 l0 -70 56 0 c64 0 73 23 11 28 -50 4 -51 32 -1 32 45 0
42 24 -4 28 -43 4 -41 22 3 22 24 0 35 5 35 15 0 11 -12 15 -50 15 l-50 0 0
-70z"/>
<path d="M3446 2608 c-14 -35 -26 -66 -26 -70 0 -14 28 -8 34 7 3 9 18 15 36
15 18 0 33 -6 36 -15 6 -15 34 -21 34 -7 0 4 -12 35 -26 70 -18 41 -33 62 -44
62 -11 0 -26 -21 -44 -62z m54 13 c0 -5 3 -16 6 -25 4 -12 0 -16 -16 -16 -16
0 -20 4 -16 16 3 9 6 20 6 25 0 5 5 9 10 9 6 0 10 -4 10 -9z"/>
<path d="M3632 2658 c3 -7 14 -14 26 -16 20 -3 22 -10 22 -58 0 -41 4 -54 15
-54 12 0 15 13 15 55 0 48 2 55 20 55 11 0 20 7 20 15 0 12 -13 15 -61 15 -44
0 -60 -3 -57 -12z"/>
<path d="M3834 2655 c-20 -15 -13 -19 34 -15 26 2 27 -3 6 -35 -14 -21 -14
-25 -2 -25 21 0 48 33 48 57 0 34 -51 45 -86 18z"/>
<path d="M3864 2559 c-10 -17 13 -36 27 -22 12 12 4 33 -11 33 -5 0 -12 -5
-16 -11z"/>
<path d="M1570 2220 l0 -150 -462 -2 -463 -3 -3 -79 c-2 -57 1 -82 10 -87 7
-5 468 -9 1023 -9 556 0 1016 4 1023 9 9 5 12 30 10 87 l-3 79 -462 3 -463 2
0 150 0 150 -105 0 -105 0 0 -150z"/>
<path d="M2850 2290 l0 -80 645 0 645 0 0 -315 0 -315 105 0 105 0 -2 393 -3
392 -747 3 -748 2 0 -80z"/>
<path d="M1873 1553 c-18 -7 -16 -42 2 -49 23 -9 18 -32 -7 -37 -13 -2 2 -4
32 -4 30 0 43 2 28 4 -34 5 -35 19 -6 43 19 15 20 20 9 34 -13 16 -34 19 -58
9z m47 -23 c0 -13 -7 -20 -19 -20 -22 0 -35 15 -26 30 12 19 45 11 45 -10z"/>
<path d="M2060 1548 c0 -14 8 -18 38 -17 34 2 34 2 7 6 -16 3 -33 10 -37 16
-5 8 -8 6 -8 -5z"/>
<path d="M2370 1535 c0 -21 5 -25 30 -25 25 0 30 4 30 25 0 21 -5 25 -30 25
-25 0 -30 -4 -30 -25z m50 0 c0 -8 -9 -15 -20 -15 -11 0 -20 7 -20 15 0 8 9
15 20 15 11 0 20 -7 20 -15z"/>
<path d="M2440 1527 c0 -32 -1 -32 -42 -30 -24 1 -35 0 -26 -3 9 -3 19 -13 21
-22 4 -15 5 -15 6 1 1 21 15 22 35 1 15 -14 16 -11 16 35 0 28 -2 51 -5 51 -3
0 -5 -15 -5 -33z"/>
<path d="M2760 1545 c0 -8 -4 -15 -10 -15 -5 0 -10 5 -10 10 0 6 -11 10 -25
10 -20 0 -25 -5 -25 -25 0 -20 5 -25 24 -25 13 0 27 6 29 13 4 9 8 8 16 -3 8
-12 11 -8 11 18 0 17 -2 32 -5 32 -3 0 -5 -7 -5 -15z m-30 -20 c0 -8 -7 -15
-15 -15 -8 0 -15 7 -15 15 0 8 7 15 15 15 8 0 15 -7 15 -15z"/>
<path d="M2963 1505 c0 -33 2 -45 4 -27 2 18 2 45 0 60 -2 15 -4 0 -4 -33z"/>
<path d="M2899 1541 c12 -8 13 -14 2 -37 -10 -24 -10 -26 3 -15 10 8 16 9 21
1 3 -5 11 -10 16 -10 6 0 3 10 -5 22 -20 29 -20 35 2 41 9 3 1 5 -18 6 -25 0
-31 -2 -21 -8z"/>
<path d="M3090 1546 c0 -2 9 -6 20 -9 11 -3 18 -1 14 4 -5 9 -34 13 -34 5z"/>
<path d="M2073 1513 c15 -2 39 -2 55 0 15 2 2 4 -28 4 -30 0 -43 -2 -27 -4z"/>
<path d="M2090 1490 l35 -7 -32 -2 c-22 -1 -33 -6 -33 -16 0 -11 11 -15 43
-14 l42 2 -40 7 c-39 7 -39 7 -7 9 21 1 32 6 32 16 0 11 -10 15 -37 14 l-38
-2 35 -7z"/>
<path d="M2727 1483 c19 -3 34 -11 36 -21 3 -12 5 -10 6 6 1 19 -3 22 -36 20
-37 -1 -37 -1 -6 -5z"/>
</g>
</svg>
